<svg xmlns="http://www.w3.org/2000/svg" width="277" height="158" preserveAspectRatio="xMidYMid" style="margin:auto;background:0 0;display:block;shape-rendering:auto"><style type="text/css"/><g style="transform-origin:138.5px 79px;transform:scale(1.13559)"><g><g><g style="opacity:1;transform-origin:-77.975px -4.59904px;animation:1s linear -.5775s infinite normal forwards running fade-4965f943-4136-486e-8e3f-60e1f3874ea5" class="path"><path style="fill:#51cacc" fill="#51cacc" stroke="none" stroke-width="none" d="M27.37-10.80L27.37-9.56L27.37-9.56Q27.37-7.46 26.52-5.62L26.52-5.62L26.52-5.62Q25.67-3.77 24.24-2.39L24.24-2.39L24.24-2.39Q22.82-1.01 20.93-0.22L20.93-0.22L20.93-0.22Q19.04 0.58 16.94 0.58L16.94 0.58L13.97 0.58L13.97 0.58Q11.87 0.58 9.98-0.22L9.98-0.22L9.98-0.22Q8.10-1.01 6.67-2.39L6.67-2.39L6.67-2.39Q5.24-3.77 4.39-5.62L4.39-5.62L4.39-5.62Q3.54-7.46 3.54-9.56L3.54-9.56L3.54-11.21L7.26-11.81L7.26-9.56L7.26-9.56Q7.26-8.18 7.82-6.99L7.82-6.99L7.82-6.99Q8.38-5.79 9.33-4.88L9.33-4.88L9.33-4.88Q10.28-3.98 11.54-3.46L11.54-3.46L11.54-3.46Q12.79-2.94 14.17-2.94L14.17-2.94L16.77-2.94L16.77-2.94Q18.15-2.94 19.39-3.46L19.39-3.46L19.39-3.46Q20.63-3.98 21.58-4.88L21.58-4.88L21.58-4.88Q22.53-5.79 23.09-6.99L23.09-6.99L23.09-6.99Q23.65-8.18 23.65-9.56L23.65-9.56L23.65-10.80L23.65-10.80Q23.65-12.94 22.82-14.35L22.82-14.35L22.82-14.35Q21.98-15.76 20.60-16.75L20.60-16.75L20.60-16.75Q19.22-17.75 17.47-18.44L17.47-18.44L17.47-18.44Q15.73-19.13 13.89-19.82L13.89-19.82L13.89-19.82Q12.04-20.51 10.30-21.35L10.30-21.35L10.30-21.35Q8.56-22.18 7.17-23.44L7.17-23.44L7.17-23.44Q5.79-24.69 4.96-26.50L4.96-26.50L4.96-26.50Q4.12-28.32 4.12-30.97L4.12-30.97L4.12-31.75L4.12-31.75Q4.12-33.85 4.91-35.69L4.91-35.69L4.91-35.69Q5.70-37.54 7.09-38.92L7.09-38.92L7.09-38.92Q8.47-40.30 10.33-41.10L10.33-41.10L10.33-41.10Q12.19-41.89 14.29-41.89L14.29-41.89L16.94-41.89L16.94-41.89Q19.04-41.89 20.89-41.10L20.89-41.10L20.89-41.10Q22.73-40.30 24.11-38.92L24.11-38.92L24.11-38.92Q25.50-37.54 26.29-35.69L26.29-35.69L26.29-35.69Q27.08-33.85 27.08-31.75L27.08-31.75L27.08-30.68L23.36-30.08L23.36-31.75L23.36-31.75Q23.36-33.13 22.85-34.33L22.85-34.33L22.85-34.33Q22.33-35.52 21.43-36.41L21.43-36.41L21.43-36.41Q20.54-37.31 19.34-37.83L19.34-37.83L19.34-37.83Q18.15-38.34 16.77-38.34L16.77-38.34L14.46-38.34L14.46-38.34Q13.08-38.34 11.88-37.83L11.88-37.83L11.88-37.83Q10.69-37.31 9.78-36.41L9.78-36.41L9.78-36.41Q8.87-35.52 8.35-34.33L8.35-34.33L8.35-34.33Q7.84-33.13 7.84-31.75L7.84-31.75L7.84-30.97L7.84-30.97Q7.84-28.98 8.67-27.63L8.67-27.63L8.67-27.63Q9.51-26.27 10.89-25.31L10.89-25.31L10.89-25.31Q12.27-24.34 14.02-23.64L14.02-23.64L14.02-23.64Q15.76-22.93 17.60-22.20L17.60-22.20L17.60-22.20Q19.45-21.46 21.19-20.58L21.19-20.58L21.19-20.58Q22.93-19.71 24.31-18.42L24.31-18.42L24.31-18.42Q25.70-17.14 26.53-15.30L26.53-15.30L26.53-15.30Q27.37-13.45 27.37-10.80L27.37-10.80" transform="translate(138.5,79) translate(0,0) translate(-93.43002319335938,16.055959625244142)"/></g><g style="opacity:1;transform-origin:-49.41px -4.59904px;animation:1s linear -.495s infinite normal forwards running fade-4965f943-4136-486e-8e3f-60e1f3874ea5" class="path"><path style="fill:#9df871" fill="#51cacc" stroke="none" stroke-width="none" d="M53.87 0L50.33 0L50.33-21.61L50.33-21.61Q50.33-22.67 49.93-23.61L49.93-23.61L49.93-23.61Q49.52-24.54 48.83-25.24L48.83-25.24L48.83-25.24Q48.14-25.93 47.20-26.33L47.20-26.33L47.20-26.33Q46.27-26.73 45.20-26.73L45.20-26.73L42.84-26.73L42.84-26.73Q41.77-26.73 40.84-26.33L40.84-26.33L40.84-26.33Q39.90-25.93 39.21-25.24L39.21-25.24L39.21-25.24Q38.52-24.54 38.11-23.61L38.11-23.61L38.11-23.61Q37.71-22.67 37.71-21.61L37.71-21.61L37.71 0L34.17 0L34.17-41.31L37.71-41.31L37.71-27.02L37.71-27.02Q38.92-28.46 40.62-29.27L40.62-29.27L40.62-29.27Q42.32-30.08 44.31-30.08L44.31-30.08L45.20-30.08L45.20-30.08Q46.99-30.08 48.57-29.40L48.57-29.40L48.57-29.40Q50.16-28.72 51.34-27.54L51.34-27.54L51.34-27.54Q52.52-26.36 53.20-24.78L53.20-24.78L53.20-24.78Q53.87-23.19 53.87-21.40L53.87-21.40L53.87 0" transform="translate(138.5,79) translate(0,0) translate(-93.43002319335938,16.055959625244142)"/></g><g style="opacity:1;transform-origin:-26.365px 1.01596px;animation:1s linear -.4125s infinite normal forwards running fade-4965f943-4136-486e-8e3f-60e1f3874ea5" class="path"><path style="fill:#e0ff77" fill="#51cacc" stroke="none" stroke-width="none" d="M73.17-26.13L69.63-26.13L69.63-26.13Q68.56-26.13 67.63-25.73L67.63-25.73L67.63-25.73Q66.69-25.32 66.00-24.63L66.00-24.63L66.00-24.63Q65.31-23.94 64.91-23.00L64.91-23.00L64.91-23.00Q64.50-22.07 64.50-21.00L64.50-21.00L64.50 0L60.96 0L60.96-29.50L62.14-29.50L64.07-26.50L64.07-26.50Q65.28-28.15 67.11-29.11L67.11-29.11L67.11-29.11Q68.94-30.08 71.10-30.08L71.10-30.08L73.17-30.08L73.17-26.13" transform="translate(138.5,79) translate(0,0) translate(-93.43002319335938,16.055959625244142)"/></g><g style="opacity:1;transform-origin:-5.68002px 1.59596px;animation:1s linear -.33s infinite normal forwards running fade-4965f943-4136-486e-8e3f-60e1f3874ea5" class="path"><path style="fill:#de9dd6" fill="#51cacc" stroke="none" stroke-width="none" d="M97.60 0L96.42 0L94.46-3.00L94.46-3.00Q93.25-1.35 91.44-0.39L91.44-0.39L91.44-0.39Q89.62 0.58 87.46 0.58L87.46 0.58L86.57 0.58L86.57 0.58Q84.78 0.58 83.20-0.10L83.20-0.10L83.20-0.10Q81.61-0.78 80.43-1.96L80.43-1.96L80.43-1.96Q79.25-3.14 78.58-4.72L78.58-4.72L78.58-4.72Q77.90-6.31 77.90-8.10L77.90-8.10L77.90-29.50L81.44-29.50L81.44-7.89L81.44-7.89Q81.44-6.83 81.85-5.89L81.85-5.89L81.85-5.89Q82.25-4.96 82.94-4.26L82.94-4.26L82.94-4.26Q83.63-3.57 84.57-3.17L84.57-3.17L84.57-3.17Q85.50-2.77 86.57-2.77L86.57-2.77L88.93-2.77L88.93-2.77Q90.00-2.77 90.93-3.17L90.93-3.17L90.93-3.17Q91.87-3.57 92.56-4.26L92.56-4.26L92.56-4.26Q93.25-4.96 93.66-5.89L93.66-5.89L93.66-5.89Q94.06-6.83 94.06-7.89L94.06-7.89L94.06-29.50L97.60-29.50L97.60 0" transform="translate(138.5,79) translate(0,0) translate(-93.43002319335938,16.055959625244142)"/></g><g style="opacity:1;transform-origin:21.115px -4.30904px;animation:1s linear -.2475s infinite normal forwards running fade-4965f943-4136-486e-8e3f-60e1f3874ea5" class="path"><path style="fill:#ff708e" fill="#51cacc" stroke="none" stroke-width="none" d="M124.40-8.10L124.40-8.10L124.40-8.10Q124.40-6.31 123.72-4.72L123.72-4.72L123.72-4.72Q123.04-3.14 121.86-1.96L121.86-1.96L121.86-1.96Q120.68-0.78 119.09-0.10L119.09-0.10L119.09-0.10Q117.51 0.58 115.72 0.58L115.72 0.58L113.36 0.58L113.36 0.58Q111.58 0.58 109.99-0.10L109.99-0.10L109.99-0.10Q108.41-0.78 107.23-1.96L107.23-1.96L107.23-1.96Q106.04-3.14 105.37-4.72L105.37-4.72L105.37-4.72Q104.69-6.31 104.69-8.10L104.69-8.10L104.69-41.31L108.23-41.31L108.23-27.02L108.23-27.02Q109.44-28.46 111.14-29.27L111.14-29.27L111.14-29.27Q112.84-30.08 114.83-30.08L114.83-30.08L115.72-30.08L115.72-30.08Q117.51-30.08 119.09-29.40L119.09-29.40L119.09-29.40Q120.68-28.72 121.86-27.54L121.86-27.54L121.86-27.54Q123.04-26.36 123.72-24.78L123.72-24.78L123.72-24.78Q124.40-23.19 124.40-21.40L124.40-21.40L124.40-8.10zM120.85-7.89L120.85-21.61L120.85-21.61Q120.85-22.67 120.45-23.61L120.45-23.61L120.45-23.61Q120.05-24.54 119.35-25.24L119.35-25.24L119.35-25.24Q118.66-25.93 117.73-26.33L117.73-26.33L117.73-26.33Q116.79-26.73 115.72-26.73L115.72-26.73L113.36-26.73L113.36-26.73Q112.30-26.73 111.36-26.33L111.36-26.33L111.36-26.33Q110.42-25.93 109.73-25.24L109.73-25.24L109.73-25.24Q109.04-24.54 108.64-23.61L108.64-23.61L108.64-23.61Q108.23-22.67 108.23-21.61L108.23-21.61L108.23-7.89L108.23-7.89Q108.23-6.83 108.64-5.89L108.64-5.89L108.64-5.89Q109.04-4.96 109.73-4.26L109.73-4.26L109.73-4.26Q110.42-3.57 111.36-3.17L111.36-3.17L111.36-3.17Q112.30-2.77 113.36-2.77L113.36-2.77L115.72-2.77L115.72-2.77Q116.79-2.77 117.73-3.17L117.73-3.17L117.73-3.17Q118.66-3.57 119.35-4.26L119.35-4.26L119.35-4.26Q120.05-4.96 120.45-5.89L120.45-5.89L120.45-5.89Q120.85-6.83 120.85-7.89L120.85-7.89" transform="translate(138.5,79) translate(0,0) translate(-93.43002319335938,16.055959625244142)"/></g><g style="opacity:1;transform-origin:47.905px -4.30904px;animation:1s linear -.165s infinite normal forwards running fade-4965f943-4136-486e-8e3f-60e1f3874ea5" class="path"><path style="fill:#51cacc" fill="#51cacc" stroke="none" stroke-width="none" d="M151.19-8.10L151.19-8.10L151.19-8.10Q151.19-6.31 150.51-4.72L150.51-4.72L150.51-4.72Q149.83-3.14 148.65-1.96L148.65-1.96L148.65-1.96Q147.47-0.78 145.89-0.10L145.89-0.10L145.89-0.10Q144.30 0.58 142.52 0.58L142.52 0.58L140.15 0.58L140.15 0.58Q138.37 0.58 136.78-0.10L136.78-0.10L136.78-0.10Q135.20-0.78 134.02-1.96L134.02-1.96L134.02-1.96Q132.84-3.14 132.16-4.72L132.16-4.72L132.16-4.72Q131.48-6.31 131.48-8.10L131.48-8.10L131.48-41.31L135.03-41.31L135.03-27.02L135.03-27.02Q136.24-28.46 137.94-29.27L137.94-29.27L137.94-29.27Q139.64-30.08 141.62-30.08L141.62-30.08L142.52-30.08L142.52-30.08Q144.30-30.08 145.89-29.40L145.89-29.40L145.89-29.40Q147.47-28.72 148.65-27.54L148.65-27.54L148.65-27.54Q149.83-26.36 150.51-24.78L150.51-24.78L150.51-24.78Q151.19-23.19 151.19-21.40L151.19-21.40L151.19-8.10zM147.64-7.89L147.64-21.61L147.64-21.61Q147.64-22.67 147.24-23.61L147.24-23.61L147.24-23.61Q146.84-24.54 146.15-25.24L146.15-25.24L146.15-25.24Q145.45-25.93 144.52-26.33L144.52-26.33L144.52-26.33Q143.58-26.73 142.52-26.73L142.52-26.73L140.15-26.73L140.15-26.73Q139.09-26.73 138.15-26.33L138.15-26.33L138.15-26.33Q137.22-25.93 136.52-25.24L136.52-25.24L136.52-25.24Q135.83-24.54 135.43-23.61L135.43-23.61L135.43-23.61Q135.03-22.67 135.03-21.61L135.03-21.61L135.03-7.89L135.03-7.89Q135.03-6.83 135.43-5.89L135.43-5.89L135.43-5.89Q135.83-4.96 136.52-4.26L136.52-4.26L136.52-4.26Q137.22-3.57 138.15-3.17L138.15-3.17L138.15-3.17Q139.09-2.77 140.15-2.77L140.15-2.77L142.52-2.77L142.52-2.77Q143.58-2.77 144.52-3.17L144.52-3.17L144.52-3.17Q145.45-3.57 146.15-4.26L146.15-4.26L146.15-4.26Q146.84-4.96 147.24-5.89L147.24-5.89L147.24-5.89Q147.64-6.83 147.64-7.89L147.64-7.89" transform="translate(138.5,79) translate(0,0) translate(-93.43002319335938,16.055959625244142)"/></g><g style="opacity:1;transform-origin:67.22px -4.59904px;animation:1s linear -.0825s infinite normal forwards running fade-4965f943-4136-486e-8e3f-60e1f3874ea5" class="path"><path style="fill:#9df871" fill="#51cacc" stroke="none" stroke-width="none" d="M162.42 0L158.88 0L158.88-41.31L162.42-41.31L162.42 0" transform="translate(138.5,79) translate(0,0) translate(-93.43002319335938,16.055959625244142)"/></g><g style="opacity:1;transform-origin:87.115px 1.30596px;animation:1s linear 0s infinite normal forwards running fade-4965f943-4136-486e-8e3f-60e1f3874ea5" class="path"><path style="fill:#e0ff77" fill="#51cacc" stroke="none" stroke-width="none" d="M190.40-8.10L190.40-8.10L190.40-8.10Q190.40-6.31 189.72-4.72L189.72-4.72L189.72-4.72Q189.04-3.14 187.86-1.96L187.86-1.96L187.86-1.96Q186.68-0.78 185.10-0.10L185.10-0.10L185.10-0.10Q183.51 0.58 181.72 0.58L181.72 0.58L179.36 0.58L179.36 0.58Q177.58 0.58 175.99-0.10L175.99-0.10L175.99-0.10Q174.41-0.78 173.23-1.96L173.23-1.96L173.23-1.96Q172.04-3.14 171.37-4.72L171.37-4.72L171.37-4.72Q170.69-6.31 170.69-8.10L170.69-8.10L170.69-21.40L170.69-21.40Q170.69-23.19 171.37-24.78L171.37-24.78L171.37-24.78Q172.04-26.36 173.23-27.54L173.23-27.54L173.23-27.54Q174.41-28.72 175.99-29.40L175.99-29.40L175.99-29.40Q177.58-30.08 179.36-30.08L179.36-30.08L181.72-30.08L181.72-30.08Q183.51-30.08 185.10-29.40L185.10-29.40L185.10-29.40Q186.68-28.72 187.86-27.54L187.86-27.54L187.86-27.54Q189.04-26.36 189.72-24.78L189.72-24.78L189.72-24.78Q190.40-23.19 190.40-21.40L190.40-21.40L190.40-14.46L174.23-14.46L174.23-7.89L174.23-7.89Q174.23-6.83 174.64-5.89L174.64-5.89L174.64-5.89Q175.04-4.96 175.73-4.26L175.73-4.26L175.73-4.26Q176.42-3.57 177.36-3.17L177.36-3.17L177.36-3.17Q178.30-2.77 179.36-2.77L179.36-2.77L181.72-2.77L181.72-2.77Q182.79-2.77 183.73-3.17L183.73-3.17L183.73-3.17Q184.66-3.57 185.35-4.26L185.35-4.26L185.35-4.26Q186.05-4.96 186.45-5.89L186.45-5.89L186.45-5.89Q186.85-6.83 186.85-7.89L186.85-7.89L186.85-9.85L190.40-9.28L190.40-8.10zM186.85-17.23L186.85-21.61L186.85-21.61Q186.85-22.67 186.45-23.61L186.45-23.61L186.45-23.61Q186.05-24.54 185.35-25.24L185.35-25.24L185.35-25.24Q184.66-25.93 183.73-26.33L183.73-26.33L183.73-26.33Q182.79-26.73 181.72-26.73L181.72-26.73L179.36-26.73L179.36-26.73Q178.30-26.73 177.36-26.33L177.36-26.33L177.36-26.33Q176.42-25.93 175.73-25.24L175.73-25.24L175.73-25.24Q175.04-24.54 174.64-23.61L174.64-23.61L174.64-23.61Q174.23-22.67 174.23-21.61L174.23-21.61L174.23-17.23L186.85-17.23" transform="translate(138.5,79) translate(0,0) translate(-93.43002319335938,16.055959625244142)"/></g></g></g></g><style id="fade-4965f943-4136-486e-8e3f-60e1f3874ea5">@keyframes fade-4965f943-4136-486e-8e3f-60e1f3874ea5{0%{animation-timing-function:cubic-bezier(.2057,.573,.3723,.9184);opacity:1}}</style></svg>