<svg xmlns="http://www.w3.org/2000/svg" xmlns:xlink="http://www.w3.org/1999/xlink" id="Layer_1" x="0" y="0" version="1.1" viewBox="0 0 280 280" xml:space="preserve" style="enable-background:new 0 0 280 280"><g><path style="fill:#26a6d1" d="M183.679,4.634l91.683,91.683c6.178,6.178,6.178,16.207,0,22.385L118.695,275.359 c-6.178,6.187-16.207,6.187-22.385,0L4.637,183.676c-6.178-6.178-6.178-16.198,0-22.376L161.295,4.634 C167.482-1.545,177.501-1.545,183.679,4.634z"/><path style="fill:#e2574c" d="M84.34,81.597L4.637,161.3c-6.178,6.178-6.178,16.198,0,22.376l91.683,91.683 c6.178,6.187,16.207,6.187,22.385,0l79.703-79.694L84.34,81.597z"/><path style="fill:#cb4e44" d="M40.585,125.352L4.637,161.3c-6.178,6.178-6.178,16.198,0,22.376l91.683,91.683 c6.178,6.187,16.207,6.187,22.385,0l35.949-35.94L40.585,125.352z"/><path style="fill:#eae5e4" d="M20.416,145.548l114.041,114.041l-10.555,10.555L9.861,156.103L20.416,145.548z"/></g></svg>